<svg xmlns="http://www.w3.org/2000/svg" version="1.1" xmlns:xlink="http://www.w3.org/1999/xlink" xmlns:svgjs="http://svgjs.dev/svgjs" width="1000" height="623" viewBox="0 0 1000 623"><g transform="matrix(1,0,0,1,-0.6060606060606233,0.2522267206477409)"><svg viewBox="0 0 396 247" data-background-color="#ffffff" preserveAspectRatio="xMidYMid meet" height="623" width="1000" xmlns="http://www.w3.org/2000/svg" xmlns:xlink="http://www.w3.org/1999/xlink"><g id="tight-bounds" transform="matrix(1,0,0,1,0.2400000000000091,-0.09999999999999432)"><svg viewBox="0 0 395.52 247.2" height="247.2" width="395.52"><g><svg></svg></g><g><svg viewBox="0 0 395.52 247.2" height="247.2" width="395.52"><g transform="matrix(1,0,0,1,69.53892518034158,37.08)"><svg viewBox="0 0 256.4421496393168 173.04" height="173.04" width="256.4421496393168"><g><svg viewBox="0 0 256.4421496393168 173.04" height="173.04" width="256.4421496393168"><g><svg viewBox="0 0 256.4421496393168 173.04" height="173.04" width="256.4421496393168"><g><svg viewBox="0 0 256.4421496393168 173.04" height="173.04" width="256.4421496393168"><g id="textblocktransform"><svg viewBox="0 0 256.4421496393168 173.04" height="173.04" width="256.4421496393168" id="textblock"><g><svg viewBox="0 0 256.4421496393168 173.04" height="173.04" width="256.4421496393168"><g transform="matrix(1,0,0,1,0,0)"><svg width="256.4421496393168" viewBox="-2.9699999999999998 -45.33 91.07 61.78" height="173.04" data-palette-color="#8bc53f"><path d="M12.82-1.71L12.82-1.71Q10.16 0.49 7.4 0.49L7.4 0.49Q4.93 0.49 4.37-0.15L4.37-0.15Q4.91-0.81 4.96-2.12 5-3.44 5-4.59L5-4.59 5-11.38Q5-12.45 4.54-12.94L4.54-12.94Q3.88-13.7 2.03-14.6L2.03-14.6Q3.74-15.38 4.2-15.84L4.2-15.84Q5-16.65 5-17.8L5-17.8 5-31.62Q5-34.4 2.73-34.4L2.73-34.4Q1.9-34.4 1.37-33.98L1.37-33.98Q1.03-34.45 1.03-34.95 1.03-35.45 1.28-35.91 1.54-36.38 2.05-36.77L2.05-36.77Q3.22-37.6 4.98-37.6 6.74-37.6 7.74-37.38L7.74-37.38Q9.2-39.06 10.74-39.06L10.74-39.06Q13.26-39.06 13.26-36.43L13.26-36.43 13.26-25.98Q15.14-27.86 18.29-28.59L18.29-28.59Q19.24-28.81 20.75-28.81 22.27-28.81 23.93-28.37 25.59-27.93 26.81-26.81L26.81-26.81Q29.25-24.56 29.81-18.8L29.81-18.8Q30.05-15.8 32.79-14.55L32.79-14.55Q31.05-13.7 30.59-13.11L30.59-13.11Q29.96-12.28 29.81-11.13L29.81-11.13Q29.1-5.25 26.78-2.44L26.78-2.44Q24.24 0.61 19.43 0.61L19.43 0.61Q16.97 0.61 14.36-0.73L14.36-0.73Q13.5-1.15 12.82-1.71ZM10.91-6.47L10.91-30.52Q9.91-30.05 9.69-28.76L9.69-28.76Q9.42-27.15 9.42-23.44L9.42-23.44 9.42-19.68 9.42-18.9Q9.45-17.58 9.47-15.32 9.5-13.06 9.52-11.84L9.52-11.84Q9.57-9.2 9.67-8.5 9.77-7.79 10.12-7.21 10.47-6.64 10.91-6.47L10.91-6.47ZM13.26-19.51L13.26-7.74Q13.26-5.76 14.6-4.35L14.6-4.35Q15.87-2.95 17.48-2.95L17.48-2.95Q21.56-2.95 21.56-8.81L21.56-8.81 21.56-19.51Q21.56-24.1 19.43-24.95L19.43-24.95Q18.75-25.24 17.9-25.24L17.9-25.24Q14.77-25.24 13.67-22.24L13.67-22.24Q13.26-21.14 13.26-19.51L13.26-19.51ZM23.9-22.73L23.9-6.47Q25.12-6.93 25.24-9.67L25.24-9.67Q25.39-12.4 25.39-13.73 25.39-15.06 25.38-15.95 25.37-16.85 25.34-17.8L25.34-17.8Q25.24-21.36 24.78-21.95 24.32-22.53 23.9-22.73L23.9-22.73ZM42.92-32.3L42.92-32.3Q41.67-32.3 40.51-32.96 39.35-33.62 38.74-34.72L38.74-34.72Q38.08-35.84 36.98-36.43L36.98-36.43Q36.64-36.6 36.2-36.79L36.2-36.79 37.03-37.3Q38.21-38.04 38.77-39.09 39.33-40.14 40.46-40.73 41.6-41.33 42.92-41.33L42.92-41.33Q45.65-41.33 46.87-39.04L46.87-39.04Q47.7-37.52 49.44-36.79L49.44-36.79Q49.07-36.57 48.72-36.4 48.36-36.23 48.04-36.01L48.04-36.01Q47.34-35.52 46.79-34.57 46.24-33.62 45.2-32.96 44.16-32.3 42.92-32.3ZM41.62-35.29Q41.48-35.55 41.39-35.9 41.31-36.25 41.31-37.16 41.31-38.06 42.23-39.45L42.23-39.45Q41.33-39.45 40.96-39.12 40.6-38.79 40.41-38.56 40.23-38.33 40.1-38.1 39.96-37.87 39.77-37.6L39.77-37.6Q39.3-36.94 39.01-36.79L39.01-36.79Q39.4-36.57 39.73-36.1 40.06-35.62 40.5-35.11L40.5-35.11Q41.16-34.3 42.23-34.3L42.23-34.3Q42.09-34.57 41.93-34.8 41.77-35.03 41.62-35.29ZM40.48-0.29L40.48-0.29Q39.35 0.49 37.92 0.49 36.5 0.49 35.8-0.15 35.1-0.78 35.1-1.37L35.1-1.37Q35.1-2.17 35.45-2.64L35.45-2.64Q35.98-2.22 37.03-2.22 38.08-2.22 38.84-3.59L38.84-3.59 38.84-11.38Q38.84-12.45 38.4-12.94L38.4-12.94Q37.69-13.67 35.86-14.58L35.86-14.58Q37.57-15.36 38.03-15.82L38.03-15.82Q38.84-16.63 38.84-17.8L38.84-17.8 38.84-21.36Q38.84-23.44 37.42-23.61L37.42-23.61Q37.01-23.66 36.37-23.66 35.74-23.66 35.2-23.24L35.2-23.24Q34.86-23.71 34.86-24.21 34.86-24.71 35.12-25.33 35.37-25.95 35.91-26.51L35.91-26.51Q37.18-27.83 38.84-27.83 40.5-27.83 41.84-27.25L41.84-27.25Q43.04-28.81 44.58-28.81L44.58-28.81Q47.09-28.81 47.09-26.17L47.09-26.17 47.09-17.8Q47.09-16.63 47.6-16.11L47.6-16.11Q48.36-15.36 50.07-14.58L50.07-14.58Q48.24-13.67 47.78-13.21L47.78-13.21Q47.09-12.45 47.09-11.38L47.09-11.38 47.09-3.52Q47.9-2.22 48.92-2.22 49.95-2.22 50.49-2.64L50.49-2.64Q50.83-2.17 50.83-1.48 50.83-0.78 50.13-0.15 49.44 0.49 48.04 0.49 46.65 0.49 45.46-0.29L45.46-0.29Q44.46 0.49 43.04 0.49 41.62 0.49 40.48-0.29ZM42.59-11.87Q42.6-12.7 42.61-13.26 42.62-13.82 42.62-14.16L42.62-14.16 42.62-14.82Q42.62-15.19 42.61-15.77 42.6-16.36 42.59-17.07 42.58-17.77 42.55-18.46L42.55-18.46Q42.45-20.14 42.31-20.78L42.31-20.78Q42.01-22.19 41.18-22.73L41.18-22.73 41.18-21.14Q41.18-17.02 41-16.3 40.82-15.58 40.41-15.22 40.01-14.87 39.23-14.6L39.23-14.6Q40.7-14.09 40.89-13.35L40.89-13.35Q41.18-12.18 41.18-8.06L41.18-8.06 41.18-6.47Q42.31-7.2 42.45-9.47L42.45-9.47Q42.58-11.04 42.59-11.87ZM57.98 11.65L57.98 11.65Q56.88 12.45 55.44 12.45 54 12.45 53.3 11.82 52.61 11.18 52.61 10.6L52.61 10.6Q52.61 9.79 52.95 9.33L52.95 9.33Q53.49 9.74 54.32 9.74L54.32 9.74Q55.73 9.74 56.34 8.11L56.34 8.11 56.34-11.13Q56.34-12.26 55.88-12.79L55.88-12.79Q55.15-13.7 53.36-14.58L53.36-14.58Q56.34-15.94 56.34-18.8L56.34-18.8 56.34-21.36Q56.34-23.44 54.93-23.61L54.93-23.61Q54.51-23.66 53.88-23.66 53.24-23.66 52.7-23.24L52.7-23.24Q52.36-23.71 52.36-24.21 52.36-24.71 52.62-25.33 52.88-25.95 53.39-26.51L53.39-26.51Q54.68-27.83 56.38-27.83 58.08-27.83 59.2-27.29L59.2-27.29Q60.54-28.81 62.08-28.81L62.08-28.81Q64.59-28.81 64.59-26.17L64.59-26.17 64.59-26Q66.52-27.93 69.62-28.61L69.62-28.61Q70.58-28.81 72.08-28.81 73.58-28.81 75.24-28.37 76.9-27.93 78.12-26.81L78.12-26.81Q80.56-24.56 81.12-18.8L81.12-18.8Q81.37-15.82 84.1-14.58L84.1-14.58Q82.37-13.72 81.9-13.13L81.9-13.13Q81.29-12.3 81.12-11.13L81.12-11.13Q80.41-5.25 78.1-2.44L78.1-2.44Q75.56 0.61 70.75 0.61L70.75 0.61Q67.04 0.61 64.59-1.34L64.59-1.34 64.59 8.06Q65.2 9.74 66.62 9.74L66.62 9.74Q67.45 9.74 67.99 9.33L67.99 9.33Q68.33 9.79 68.33 10.49 68.33 11.18 67.63 11.82 66.94 12.45 65.52 12.45 64.11 12.45 62.96 11.65L62.96 11.65Q61.98 12.45 60.53 12.45 59.08 12.45 57.98 11.65ZM64.57-19.02L64.57-7.74Q64.57-5.76 65.89-4.35L65.89-4.35Q67.18-2.95 68.79-2.95L68.79-2.95Q72.87-2.95 72.87-8.81L72.87-8.81 72.87-19.51Q72.87-22.19 71.92-23.72 70.97-25.24 69.23-25.24L69.23-25.24Q66.13-25.24 64.96-21.83L64.96-21.83Q64.57-20.65 64.57-19.02L64.57-19.02ZM75.21-22.73L75.21-6.47Q76.44-6.93 76.58-9.67L76.58-9.67Q76.7-12.4 76.7-13.73 76.7-15.06 76.69-15.95 76.68-16.85 76.66-17.8L76.66-17.8Q76.56-21.36 76.09-21.95 75.63-22.53 75.21-22.73L75.21-22.73ZM58.64-7.35L58.64 0.63Q59.79-0.15 59.93-2.64L59.93-2.64Q59.98-4.05 60-5.91L60-5.91Q60.05-10.08 60.07-11.22 60.08-12.35 60.08-13.16L60.08-13.16 60.08-15.09Q60.08-15.48 60.07-16.05 60.05-16.63 60.04-17.3 60.03-17.97 59.98-18.6L59.98-18.6Q59.86-21.02 59.46-21.74 59.05-22.46 58.64-22.73L58.64-22.73 58.64-21.26Q58.64-17.02 58.45-16.3 58.27-15.58 57.87-15.21 57.47-14.84 56.68-14.58L56.68-14.58Q58.15-14.06 58.34-13.35L58.34-13.35Q58.64-12.28 58.64-7.35L58.64-7.35Z" opacity="1" transform="matrix(1,0,0,1,0,0)" fill="#8bc53f" class="undefined-text-0" data-fill-palette-color="primary" id="text-0"></path></svg></g></svg></g></svg></g></svg></g></svg></g></svg></g></svg></g><g mask="url(&quot;#03d3234c-090e-4cc2-8922-047ecc0a6d5c&quot;)"><g transform="matrix(2.451986470298561, 0, 0, 2.451986470298561, 81.10306569584048, 0.9999999999999858)"><svg version="1.0" xmlns="http://www.w3.org/2000/svg" xmlns:xlink="http://www.w3.org/1999/xlink" x="0" y="0" viewBox="0 0.00021659932588417516 95.153 100.00055178532193" enable-background="new 0 0 95.152 100.001" xml:space="preserve" width="95.153" height="100.00055178532193" class="icon-none" data-fill-palette-color="accent" id="none"><path d="M51.722 84.979c2.716-16.748 3.264-35.997 3.264-35.997l40.167 21.417-1.739-7.6L55.199 30.471c-1.19-21.774-3.906-28.29-3.906-28.29-1.096-2.287-3.693-2.18-3.693-2.18h-0.023-0.023c0 0-2.598-0.107-3.693 2.18 0 0-2.716 6.516-3.906 28.29L1.739 62.8 0 70.399l40.167-21.417c0 0 0.548 19.249 3.264 35.997 0 0-11.983 10.888-11.757 11.65v3.049c0 0 0.536 0.549 2.395 0.215l10.435-3.586c0 0 1.978-0.44 3.073-0.321 1.096-0.119 3.073 0.321 3.073 0.321l10.435 3.586c1.858 0.334 2.395-0.215 2.395-0.215V96.63C63.705 95.867 51.722 84.979 51.722 84.979z" fill="#5d9943" data-fill-palette-color="accent"></path></svg></g></g><mask id="03d3234c-090e-4cc2-8922-047ecc0a6d5c"><rect width="640" height="400" fill="white"></rect><g transform="matrix(1,0,0,1,69.53892518034158,37.08)"><svg viewBox="0 0 256.4421496393168 173.04" height="173.04" width="256.4421496393168"><g><svg viewBox="0 0 256.4421496393168 173.04" height="173.04" width="256.4421496393168"><g><svg viewBox="0 0 256.4421496393168 173.04" height="173.04" width="256.4421496393168"><g><svg viewBox="0 0 256.4421496393168 173.04" height="173.04" width="256.4421496393168"><g id="SvgjsG1002"><svg viewBox="0 0 256.4421496393168 173.04" height="173.04" width="256.4421496393168" id="SvgjsSvg1001"><g><svg viewBox="0 0 256.4421496393168 173.04" height="173.04" width="256.4421496393168"><g transform="matrix(1,0,0,1,0,0)"><svg width="256.4421496393168" viewBox="-2.9699999999999998 -45.33 91.07 61.78" height="173.04" data-palette-color="#8bc53f"><path d="M12.82-1.71L12.82-1.71Q10.16 0.49 7.4 0.49L7.4 0.49Q4.93 0.49 4.37-0.15L4.37-0.15Q4.91-0.81 4.96-2.12 5-3.44 5-4.59L5-4.59 5-11.38Q5-12.45 4.54-12.94L4.54-12.94Q3.88-13.7 2.03-14.6L2.03-14.6Q3.74-15.38 4.2-15.84L4.2-15.84Q5-16.65 5-17.8L5-17.8 5-31.62Q5-34.4 2.73-34.4L2.73-34.4Q1.9-34.4 1.37-33.98L1.37-33.98Q1.03-34.45 1.03-34.95 1.03-35.45 1.28-35.91 1.54-36.38 2.05-36.77L2.05-36.77Q3.22-37.6 4.98-37.6 6.74-37.6 7.74-37.38L7.74-37.38Q9.2-39.06 10.74-39.06L10.74-39.06Q13.26-39.06 13.26-36.43L13.26-36.43 13.26-25.98Q15.14-27.86 18.29-28.59L18.29-28.59Q19.24-28.81 20.75-28.81 22.27-28.81 23.93-28.37 25.59-27.93 26.81-26.81L26.81-26.81Q29.25-24.56 29.81-18.8L29.81-18.8Q30.05-15.8 32.79-14.55L32.79-14.55Q31.05-13.7 30.59-13.11L30.59-13.11Q29.96-12.28 29.81-11.13L29.81-11.13Q29.1-5.25 26.78-2.44L26.78-2.44Q24.24 0.61 19.43 0.61L19.43 0.61Q16.97 0.61 14.36-0.73L14.36-0.73Q13.5-1.15 12.82-1.71ZM10.91-6.47L10.91-30.52Q9.91-30.05 9.69-28.76L9.69-28.76Q9.42-27.15 9.42-23.44L9.42-23.44 9.42-19.68 9.42-18.9Q9.45-17.58 9.47-15.32 9.5-13.06 9.52-11.84L9.52-11.84Q9.57-9.2 9.67-8.5 9.77-7.79 10.12-7.21 10.47-6.64 10.91-6.47L10.91-6.47ZM13.26-19.51L13.26-7.74Q13.26-5.76 14.6-4.35L14.6-4.35Q15.87-2.95 17.48-2.95L17.48-2.95Q21.56-2.95 21.56-8.81L21.56-8.81 21.56-19.51Q21.56-24.1 19.43-24.95L19.43-24.95Q18.75-25.24 17.9-25.24L17.9-25.24Q14.77-25.24 13.67-22.24L13.67-22.24Q13.26-21.14 13.26-19.51L13.26-19.51ZM23.9-22.73L23.9-6.47Q25.12-6.93 25.24-9.67L25.24-9.67Q25.39-12.4 25.39-13.73 25.39-15.06 25.38-15.95 25.37-16.85 25.34-17.8L25.34-17.8Q25.24-21.36 24.78-21.95 24.32-22.53 23.9-22.73L23.9-22.73ZM42.92-32.3L42.92-32.3Q41.67-32.3 40.51-32.96 39.35-33.62 38.74-34.72L38.74-34.72Q38.08-35.84 36.98-36.43L36.98-36.43Q36.64-36.6 36.2-36.79L36.2-36.79 37.03-37.3Q38.21-38.04 38.77-39.09 39.33-40.14 40.46-40.73 41.6-41.33 42.92-41.33L42.92-41.33Q45.65-41.33 46.87-39.04L46.87-39.04Q47.7-37.52 49.44-36.79L49.44-36.79Q49.07-36.57 48.72-36.4 48.36-36.23 48.04-36.01L48.04-36.01Q47.34-35.52 46.79-34.57 46.24-33.62 45.2-32.96 44.16-32.3 42.92-32.3ZM41.62-35.29Q41.48-35.55 41.39-35.9 41.31-36.25 41.31-37.16 41.31-38.06 42.23-39.45L42.23-39.45Q41.33-39.45 40.96-39.12 40.6-38.79 40.41-38.56 40.23-38.33 40.1-38.1 39.96-37.87 39.77-37.6L39.77-37.6Q39.3-36.94 39.01-36.79L39.01-36.79Q39.4-36.57 39.73-36.1 40.06-35.62 40.5-35.11L40.5-35.11Q41.16-34.3 42.23-34.3L42.23-34.3Q42.09-34.57 41.93-34.8 41.77-35.03 41.62-35.29ZM40.48-0.29L40.48-0.29Q39.35 0.49 37.92 0.49 36.5 0.49 35.8-0.15 35.1-0.78 35.1-1.37L35.1-1.37Q35.1-2.17 35.45-2.64L35.45-2.64Q35.98-2.22 37.03-2.22 38.08-2.22 38.84-3.59L38.84-3.59 38.84-11.38Q38.84-12.45 38.4-12.94L38.4-12.94Q37.69-13.67 35.86-14.58L35.86-14.58Q37.57-15.36 38.03-15.82L38.03-15.82Q38.84-16.63 38.84-17.8L38.84-17.8 38.84-21.36Q38.84-23.44 37.42-23.61L37.42-23.61Q37.01-23.66 36.37-23.66 35.74-23.66 35.2-23.24L35.2-23.24Q34.86-23.71 34.86-24.21 34.86-24.71 35.12-25.33 35.37-25.95 35.91-26.51L35.91-26.51Q37.18-27.83 38.84-27.83 40.5-27.83 41.84-27.25L41.84-27.25Q43.04-28.81 44.58-28.81L44.58-28.81Q47.09-28.81 47.09-26.17L47.09-26.17 47.09-17.8Q47.09-16.63 47.6-16.11L47.6-16.11Q48.36-15.36 50.07-14.58L50.07-14.58Q48.24-13.67 47.78-13.21L47.78-13.21Q47.09-12.45 47.09-11.38L47.09-11.38 47.09-3.52Q47.9-2.22 48.92-2.22 49.95-2.22 50.49-2.64L50.49-2.64Q50.83-2.17 50.83-1.48 50.83-0.78 50.13-0.15 49.44 0.49 48.04 0.49 46.65 0.49 45.46-0.29L45.46-0.29Q44.46 0.49 43.04 0.49 41.62 0.49 40.48-0.29ZM42.59-11.87Q42.6-12.7 42.61-13.26 42.62-13.82 42.62-14.16L42.62-14.16 42.62-14.82Q42.62-15.19 42.61-15.77 42.6-16.36 42.59-17.07 42.58-17.77 42.55-18.46L42.55-18.46Q42.45-20.14 42.31-20.78L42.31-20.78Q42.01-22.19 41.18-22.73L41.18-22.73 41.18-21.14Q41.18-17.02 41-16.3 40.82-15.58 40.41-15.22 40.01-14.87 39.23-14.6L39.23-14.6Q40.7-14.09 40.89-13.35L40.89-13.35Q41.18-12.18 41.18-8.06L41.18-8.06 41.18-6.47Q42.31-7.2 42.45-9.47L42.45-9.47Q42.58-11.04 42.59-11.87ZM57.98 11.65L57.98 11.65Q56.88 12.45 55.44 12.45 54 12.45 53.3 11.82 52.61 11.18 52.61 10.6L52.61 10.6Q52.61 9.79 52.95 9.33L52.95 9.33Q53.49 9.74 54.32 9.74L54.32 9.74Q55.73 9.74 56.34 8.11L56.34 8.11 56.34-11.13Q56.34-12.26 55.88-12.79L55.88-12.79Q55.15-13.7 53.36-14.58L53.36-14.58Q56.34-15.94 56.34-18.8L56.34-18.8 56.34-21.36Q56.34-23.44 54.93-23.61L54.93-23.61Q54.51-23.66 53.88-23.66 53.24-23.66 52.7-23.24L52.7-23.24Q52.36-23.71 52.36-24.21 52.36-24.71 52.62-25.33 52.88-25.95 53.39-26.51L53.39-26.51Q54.68-27.83 56.38-27.83 58.08-27.83 59.2-27.29L59.2-27.29Q60.54-28.81 62.08-28.81L62.08-28.81Q64.59-28.81 64.59-26.17L64.59-26.17 64.59-26Q66.52-27.93 69.62-28.61L69.62-28.61Q70.58-28.81 72.08-28.81 73.58-28.81 75.24-28.37 76.9-27.93 78.12-26.81L78.12-26.81Q80.56-24.56 81.12-18.8L81.12-18.8Q81.37-15.82 84.1-14.58L84.1-14.58Q82.37-13.72 81.9-13.13L81.9-13.13Q81.29-12.3 81.12-11.13L81.12-11.13Q80.41-5.25 78.1-2.44L78.1-2.44Q75.56 0.61 70.75 0.61L70.75 0.61Q67.04 0.61 64.59-1.34L64.59-1.34 64.59 8.06Q65.2 9.74 66.62 9.74L66.62 9.74Q67.45 9.74 67.99 9.33L67.99 9.33Q68.33 9.79 68.33 10.49 68.33 11.18 67.63 11.82 66.94 12.45 65.52 12.45 64.11 12.45 62.96 11.65L62.96 11.65Q61.98 12.45 60.53 12.45 59.08 12.45 57.98 11.65ZM64.57-19.02L64.57-7.74Q64.57-5.76 65.89-4.35L65.89-4.35Q67.18-2.95 68.79-2.95L68.79-2.95Q72.87-2.95 72.87-8.81L72.87-8.81 72.87-19.51Q72.87-22.19 71.92-23.72 70.97-25.24 69.23-25.24L69.23-25.24Q66.13-25.24 64.96-21.83L64.96-21.83Q64.57-20.65 64.57-19.02L64.57-19.02ZM75.21-22.73L75.21-6.47Q76.44-6.93 76.58-9.67L76.58-9.67Q76.7-12.4 76.7-13.73 76.7-15.06 76.69-15.95 76.68-16.85 76.66-17.8L76.66-17.8Q76.56-21.36 76.09-21.95 75.63-22.53 75.21-22.73L75.21-22.73ZM58.64-7.35L58.64 0.63Q59.79-0.15 59.93-2.64L59.93-2.64Q59.98-4.05 60-5.91L60-5.91Q60.05-10.08 60.07-11.22 60.08-12.35 60.08-13.16L60.08-13.16 60.08-15.09Q60.08-15.48 60.07-16.05 60.05-16.63 60.04-17.3 60.03-17.97 59.98-18.6L59.98-18.6Q59.86-21.02 59.46-21.74 59.05-22.46 58.64-22.73L58.64-22.73 58.64-21.26Q58.64-17.02 58.45-16.3 58.27-15.58 57.87-15.21 57.47-14.84 56.68-14.58L56.68-14.58Q58.15-14.06 58.34-13.35L58.34-13.35Q58.64-12.28 58.64-7.35L58.64-7.35Z" opacity="1" transform="matrix(1,0,0,1,0,0)" fill="#8bc53f" class="undefined-text-0" data-fill-palette-color="primary" id="SvgjsPath1000" stroke-width="7" stroke="black" stroke-linejoin="round"></path></svg></g></svg></g></svg></g></svg></g></svg></g></svg></g></svg></g></mask></svg></g><defs></defs></svg><rect width="395.52" height="247.2" fill="none" stroke="none" visibility="hidden"></rect></g></svg></g></svg>